<svg id="Layer_3" data-name="Layer 3" xmlns="http://www.w3.org/2000/svg" xmlns:xlink="http://www.w3.org/1999/xlink" viewBox="0 0 881.42 621.14"><defs><style>.cls-1,.cls-7{fill:#fff;stroke-miterlimit:10;}.cls-1{stroke:#231f20;}.cls-2{fill:#ec2224;}.cls-3{fill:#b5151d;}.cls-4{fill:url(#New_Gradient_Swatch_10);}.cls-5{fill:url(#New_Gradient_Swatch_10-2);}.cls-6{fill:none;}.cls-7{stroke:#fff;stroke-width:5px;}</style><linearGradient id="New_Gradient_Swatch_10" x1="736.54" y1="344.43" x2="736.54" y2="344.43" gradientUnits="userSpaceOnUse"><stop offset="0" stop-color="#0071bb"/><stop offset="1" stop-color="#0054a5"/></linearGradient><linearGradient id="New_Gradient_Swatch_10-2" x1="-145.11" y1="344.43" x2="-145.11" y2="344.43" gradientTransform="matrix(-1, 0, 0, 1, 56.4, 0)" xlink:href="#New_Gradient_Swatch_10"/></defs><path class="cls-1" d="M910,630.77" transform="translate(-28.31 -101.86)"/><path class="cls-2" d="M871,720.62c-26.1-9.55-49.94-24.38-72.41-40.55a618.51,618.51,0,0,1-128-124c-36.18-46.88-73.87-103-83.46-162.57-13-81,50.42-136.43,123-155.68,40-10.61,81.32-10.37,122.32-7.42,2.67.19,6.16,1.24,6.08,3.92-.06,1.87-1.94,3.07-3.59,3.94-25.19,13.37-50.26,31.71-69.07,54.5-12.4,15-22.07,32-27.27,50.7-.38,1.36-.73,2.73-1.06,4.1-7.55,31.41-2.44,64.75,6.14,96,22.72,82.78,68,158,113.16,230.25,7,11.22,15.33,21.56,22.34,32.79C887.6,720.09,888.31,726.94,871,720.62Z" transform="translate(-28.31 -101.86)"/><circle class="cls-2" cx="657.77" cy="63.32" r="63.32"/><circle class="cls-2" cx="444.13" cy="63.32" r="63.32"/><path class="cls-3" d="M909.74,318.75a543.72,543.72,0,0,0-172.16,28.83c.33-1.37.68-2.74,1.06-4.1,5.2-18.72,14.87-35.68,27.27-50.7a233.47,233.47,0,0,1,143.83,26Z" transform="translate(-28.31 -101.86)"/><path class="cls-4" d="M736.54,344.43" transform="translate(-28.31 -101.86)"/><path class="cls-1" d="M-134.06,888.93" transform="translate(-28.31 -101.86)"/><path class="cls-2" d="M67,720.62c26.1-9.55,49.94-24.38,72.41-40.55a618.51,618.51,0,0,0,128-124c36.18-46.88,73.87-103,83.46-162.57,13-81-50.42-136.43-123-155.68-40-10.61-81.32-10.37-122.32-7.42-2.67.19-6.16,1.24-6.08,3.92.06,1.87,1.94,3.07,3.59,3.94,25.19,13.37,50.26,31.71,69.07,54.5,12.4,15,22.07,32,27.27,50.7.38,1.36.73,2.73,1.06,4.1,7.55,31.41,2.44,64.75-6.14,96-22.72,82.78-68,158-113.16,230.25-7,11.22-15.33,21.56-22.34,32.79C50.45,720.09,49.74,726.94,67,720.62Z" transform="translate(-28.31 -101.86)"/><circle class="cls-2" cx="223.65" cy="63.32" r="63.32"/><path class="cls-3" d="M28.31,318.75a543.72,543.72,0,0,1,172.16,28.83c-.33-1.37-.68-2.74-1.06-4.1-5.2-18.72-14.87-35.68-27.27-50.7a233.47,233.47,0,0,0-143.83,26Z" transform="translate(-28.31 -101.86)"/><path class="cls-5" d="M201.51,344.43" transform="translate(-28.31 -101.86)"/><path class="cls-6" d="M1071.32,772.09" transform="translate(-28.31 -101.86)"/><path class="cls-6" d="M1508.94,714.38" transform="translate(-28.31 -101.86)"/><path class="cls-2" d="M515.66,293A213.94,213.94,0,0,0,475,345.72a3,3,0,0,1-5.18,0A213.63,213.63,0,0,0,429.23,293c-48.28-45.59-105.49-56.24-133.4-59.05a3,3,0,0,0-2.37,5.06,584.24,584.24,0,0,1,70.66,83.86c91.47,132.05,106.47,271.21,108.13,347.74l.19-27.58.19,27.58c1.66-76.53,16.67-215.69,108.14-347.74A584.21,584.21,0,0,1,651.42,239a3,3,0,0,0-2.36-5.06C621.15,236.73,563.93,247.38,515.66,293Z" transform="translate(-28.31 -101.86)"/><path class="cls-7" d="M-176-161.68Z" transform="translate(-28.31 -101.86)"/><text x="-28.31" y="-101.86"/></svg>